<!--?xml version="1.0" encoding="utf-8"?-->
<!-- Svg Vector Icons : http://www.onlinewebfonts.com/icon -->

<svg version="1.1" xmlns="http://www.w3.org/2000/svg" xmlns:xlink="http://www.w3.org/1999/xlink" x="0px" y="0px" viewBox="0 0 256 256" enable-background="new 0 0 256 256" xml:space="preserve">
<metadata> Svg Vector Icons : http://www.onlinewebfonts.com/icon </metadata>
<g><g><path fill="#f1f1f1" data-title="Layer 0" xs="0" d="M201.7,24.8c0-8.2,6.6-14.8,14.8-14.8c8.2,0,14.8,6.6,14.8,14.8v118c0,57-46.3,103.2-103.3,103.2S24.7,199.8,24.7,142.8v-59C24.7,43,57.7,10,98.5,10s73.8,33,73.8,73.8V128c0,24.4-19.8,44.3-44.3,44.3c-24.4,0-44.2-19.8-44.2-44.3V83.8c0-8.2,6.6-14.8,14.8-14.8s14.8,6.6,14.8,14.8V128c0,8.2,6.6,14.8,14.8,14.8c8.2,0,14.8-6.6,14.8-14.8V83.8c0-24.4-19.8-44.3-44.3-44.3S54.3,59.3,54.3,83.8v59c0,40.7,33,73.8,73.8,73.8c40.7,0,73.8-33,73.8-73.8L201.7,24.8L201.7,24.8z"/></g></g>
</svg>