<?xml version="1.0" encoding="utf-8"?>
<!-- Svg Vector Icons : http://www.onlinewebfonts.com/icon -->
<!DOCTYPE svg PUBLIC "-//W3C//DTD SVG 1.1//EN" "http://www.w3.org/Graphics/SVG/1.1/DTD/svg11.dtd">
<svg version="1.1" xmlns="http://www.w3.org/2000/svg" xmlns:xlink="http://www.w3.org/1999/xlink" x="0px" y="0px" viewBox="0 0 256 256" enable-background="new 0 0 256 256" xml:space="preserve">
<metadata> Svg Vector Icons : http://www.onlinewebfonts.com/icon </metadata>
<g><g><g><path fill="#000000" d="M39.3,54.3v44.3l44.2,73.7c24.3,40.6,44.3,73.7,44.5,73.7c0.1,0,20.1-33.2,44.5-73.7l44.2-73.7V54.3V10H128H39.3V54.3z M105.8,83.7c12.1,16.1,22,29.3,22.2,29.3c0.1,0,10.1-13.2,22.2-29.3c12.1-16.1,22-29.3,22.2-29.3s6.8,9.9,14.9,22.1L202,98.6l-22.1,36.9l-22.1,36.9H128H98.3l-22.1-36.9L54,98.6l14.7-22.1c8.1-12.1,14.8-22.1,14.9-22.1C83.8,54.4,93.8,67.5,105.8,83.7z"/></g></g></g>
</svg>