<?xml version="1.0" encoding="utf-8"?>
<!-- Svg Vector Icons : http://www.onlinewebfonts.com/icon -->
<!DOCTYPE svg PUBLIC "-//W3C//DTD SVG 1.1//EN" "http://www.w3.org/Graphics/SVG/1.1/DTD/svg11.dtd">
<svg version="1.1" xmlns="http://www.w3.org/2000/svg" xmlns:xlink="http://www.w3.org/1999/xlink" x="0px" y="0px" viewBox="0 0 256 256" enable-background="new 0 0 256 256" xml:space="preserve">
<metadata> Svg Vector Icons : http://www.onlinewebfonts.com/icon </metadata>
<g><g><g><path fill="#000000" d="M119.1,10.1c-0.9,0.1-3.6,0.4-6,0.7c-17.3,2-35.9,8.9-50.8,18.9c-28.6,19.2-46.9,48.9-51.7,83.5c-0.8,5.8-0.8,23.8,0,29.5c3.7,26.9,15.1,50,33.8,68.7c33.5,33.5,82.8,43.7,127.3,26.3c25.6-10,48.7-31,61.3-55.9c19.2-37.6,16.9-83.4-6.1-118.3c-19-28.9-48.4-47.6-82.5-52.7C139.9,10.2,122.6,9.6,119.1,10.1z M139.5,13.5c26,2.5,51,14.4,69.7,33.2c9.1,9.1,15.8,18.5,21.6,30.3c5.7,11.5,8.5,20.2,10.7,33c0.9,4.8,1,7.7,1,17.5c0,13.2-0.5,17.9-3.2,28.8c-5,19.8-15.6,38.3-30.2,53c-11.6,11.6-26.8,21.3-42.1,26.9c-5.7,2.1-15.7,4.6-22.5,5.7c-8.1,1.2-26.8,1.2-34.6-0.2c-7.3-1.2-15.3-3.3-21.1-5.4c-6.4-2.4-18.5-8.4-23.9-12c-26.1-17.4-43.9-43.7-49.8-73.9c-4.2-21.4-2.2-44.4,5.8-64.4c14.4-36.4,46.4-63.1,84.7-70.7c3.3-0.6,7.7-1.3,9.8-1.6C121.1,13,134,12.9,139.5,13.5z"/><path fill="#000000" d="M61.4,55.3c-2,0.8-4,2.7-4.9,4.6c-0.6,1.2-0.7,7.8-0.7,58.7l0,57.3l3.6,11.9c1.9,6.6,3.7,12.3,4,12.7c0.6,1.2,2.2,1,2.7-0.2c0.3-0.6,2-6.3,4-12.7l3.5-11.8l0-57.3c0-62.9,0.2-58.5-2.7-61.3C68.1,54.7,64.5,54,61.4,55.3z M66.7,58.4c2.5,1.1,3.5,2.7,3.5,6.1v3h-5.8h-5.9l0.3-2.9c0.3-3.2,1.2-4.8,3.6-6C64.3,57.6,64.7,57.6,66.7,58.4z M70.2,71.9V73h-5.8h-5.8v-1.2v-1.2h5.8h5.8V71.9z M70.7,121.2v45h-6h-6v-45v-45h6h6V121.2z M70.2,171.3v1.8h-5.8h-5.8v-1.5c0-0.9,0.1-1.7,0.3-1.8c0.1-0.2,2.8-0.3,5.8-0.3h5.4V171.3L70.2,171.3z M69.7,176.7c0,0.2-1,3.7-2.3,7.8c-1.4,4.7-2.4,7.4-2.9,7.4c-0.4,0-1.4-2.7-2.8-7.4c-1.2-4.1-2.2-7.5-2.2-7.8c0-0.2,2.3-0.3,5.1-0.3C67.5,176.4,69.7,176.5,69.7,176.7z"/><path fill="#000000" d="M88.8,55.1c-0.8,0.8-0.8,144.4,0,145.2c0.4,0.4,11.6,0.6,47.7,0.6h47.1l8.2-8.5l8.1-8.4v-64.3c0-50.6-0.1-64.4-0.6-64.7c-0.3-0.2-25.2-0.4-55.2-0.4C102.1,54.6,89.2,54.7,88.8,55.1z M113.1,66.6v8.7l-6,0.1c-5,0.1-6.2,0.3-6.6,0.9c-0.3,0.4-0.3,1.1-0.2,1.5c0.2,0.6,1.2,0.7,6.6,0.7h6.2v5.3v5.3l-6,0.1c-5,0.1-6.2,0.3-6.6,0.9c-0.3,0.4-0.3,1.1-0.2,1.5c0.2,0.6,1.2,0.7,6.6,0.7h6.2v5.3v5.3l-6,0.1c-5,0.1-6.2,0.3-6.6,0.9c-0.3,0.4-0.3,1.1-0.2,1.5c0.2,0.6,1.2,0.7,6.6,0.7h6.2v5.3v5.3h-6.2c-5.4,0-6.3,0.1-6.6,0.7c-0.1,0.4-0.1,1.1,0.2,1.5c0.4,0.6,1.6,0.7,6.6,0.9l6,0.1v5.3v5.3l-6.3,0.1c-6.3,0.1-6.4,0.1-6.5,1.2c-0.1,0.6,0.1,1.3,0.5,1.5c0.3,0.2,3.2,0.4,6.5,0.4h5.9v5.3v5.3h-6.2c-5.4,0-6.3,0.1-6.6,0.7c-0.1,0.4-0.1,1.1,0.2,1.5c0.4,0.6,1.6,0.7,6.6,0.9l6,0.1v5.3v5.3l-6.3,0.1c-6.3,0.1-6.4,0.1-6.5,1.2c-0.1,0.6,0.1,1.3,0.5,1.5c0.3,0.2,3.2,0.4,6.5,0.4h5.9v5.3v5.3h-5.7c-3.1,0-6,0.1-6.5,0.3s-0.7,0.7-0.7,1.3c0,0.6,0.3,1.2,0.7,1.3c0.4,0.1,3.3,0.3,6.5,0.3h5.7v11.1v11.1h-10.8H91.4v-69.9V57.8h10.8h10.8V66.6L113.1,66.6z M197,119.7l-0.1,62l-7.4,0.1c-6.3,0.1-7.5,0.2-7.9,0.9c-0.4,0.6-0.6,2.9-0.6,7.8v7.1h-32.3h-32.3v-11.1v-11.1l34.4-0.1c31.6-0.1,34.5-0.2,34.9-0.9c0.4-0.6,0.3-1-0.1-1.5c-0.6-0.6-4.2-0.7-34.9-0.7h-34.3v-5.3v-5.3h34.3c30.7,0,34.4-0.1,34.9-0.7c0.4-0.5,0.5-0.9,0.1-1.5c-0.4-0.7-3.4-0.8-34.9-0.9l-34.4-0.1v-5.3v-5.3h34.3c26.1,0,34.4-0.1,34.8-0.6c0.8-0.8,0.7-2.1-0.2-2.4c-0.4-0.1-16.1-0.3-34.8-0.3h-34.1v-5.3v-5.3h34.3c30.7,0,34.4-0.1,34.9-0.7c0.4-0.5,0.5-0.9,0.1-1.5c-0.4-0.7-3.4-0.8-34.9-0.9l-34.4-0.1v-5.3v-5.3h34.3c26.1,0,34.4-0.1,34.8-0.6c0.8-0.8,0.7-2.1-0.2-2.4c-0.4-0.1-16.1-0.3-34.8-0.3h-34.1v-5.3v-5.3H151c31.7,0,34.7,0,34.9-0.7c0.1-0.4,0.1-1.1-0.2-1.5c-0.4-0.6-3.8-0.7-34.9-0.9l-34.4-0.1v-5.3v-5.3H151c31.7,0,34.7,0,34.9-0.7c0.1-0.4,0.1-1.1-0.2-1.5c-0.4-0.6-3.8-0.7-34.9-0.9l-34.4-0.1v-5.3v-5.3H151c31.7,0,34.7,0,34.9-0.7c0.1-0.4,0.1-1.1-0.2-1.5c-0.4-0.6-3.8-0.7-34.9-0.9l-34.4-0.1v-8.8v-8.8h40.4h40.4L197,119.7z M194.8,184.9c0,0-2.4,2.5-5.3,5.4l-5.3,5.3v-5.4v-5.4h5.3C192.4,184.7,194.8,184.8,194.8,184.9z"/></g></g></g>
</svg>